# xmcd CD database file
#
# Track frame offsets:
#	187
#	7005
#	13725
#	22830
#	25322
#	49597
#	61955
#	73090
#	86020
#	92095
#	107605
#	128892
#	135675
#	167412
#	187917
#	192762
#	208927
#	217782
#	231102
#	239510
#	248065
#	267517
#	270162
#	277310
#
# Disc length: 3989 seconds
#
# Revision: 0
# Processed by: cddbd v1.5.1PL0 Copyright (c) Steve Scherf et al.
# Submitted via: CDex 1.51
#
DISCID=4f0f9318
DTITLE=ハチャトゥリアン - バレエ音楽「ガイーヌ」全曲（ポリジョイ劇場版）
DYEAR=1900
DGENRE=Classical
TTITLE0=導入部
TTITLE1=狩
TTITLE2=友人たちの踊り（アルメンとゲオルギー）
TTITLE3=近づく嵐
TTITLE4=嵐
TTITLE5=じゅうたんの刺繍の場面（ガイーヌと娘たち）
TTITLE6=レズギンカ（若者たちの踊り）
TTITLE7=「ウズンダアラ」（ヌーネと娘たちの踊り）
TTITLE8=ガイーヌの踊り
TTITLE9=狩人たちを待つ
TTITLE10=ガイーヌとアルメンのデュエット
TTITLE11=音楽による幕間（間奏曲）
TTITLE12=アイシャの全快（ガイーヌ、ヌーネ、アイシャの踊り）
TTITLE13=場面、アイシャとゲオルギーのデュエット
TTITLE14=アイシャの場面
TTITLE15=アイシャとアルメンの場面
TTITLE16=カレンへの狩人たちの試練
TTITLE17=娘たちの踊り（バラの娘たちの踊り）
TTITLE18=アルメンとゲオルギーの踊り
TTITLE19=ヌーネとカレンの踊り
TTITLE20=場面と全体の踊り
TTITLE21=ゲオルギーとアルメンの口論の場面
TTITLE22=行進曲
TTITLE23=アイシャとガイーヌの場面
EXTD=
EXTT0=
EXTT1=
EXTT2=
EXTT3=
EXTT4=
EXTT5=
EXTT6=
EXTT7=
EXTT8=
EXTT9=
EXTT10=
EXTT11=
EXTT12=
EXTT13=
EXTT14=
EXTT15=
EXTT16=
EXTT17=
EXTT18=
EXTT19=
EXTT20=
EXTT21=
EXTT22=
EXTT23=
PLAYORDER=
